HIERARCHY
ROOT root
{
	OFFSET	0	13.1	24.9
	CHANNELS 6  Xposition Yposition Zposition Xrotation Yrotation Zrotation
	JOINT spine_1
	{
		OFFSET	0	9.99999	0
		CHANNELS 3  Xrotation Yrotation Zrotation
		JOINT spine_2
		{
			OFFSET	0	112	-10
			CHANNELS 3  Xrotation Yrotation Zrotation
			JOINT spine_3
			{
				OFFSET	0	206.5	19.3
				CHANNELS 3  Xrotation Yrotation Zrotation
				JOINT spine_4
				{
					OFFSET	0	110.4	14.6
					CHANNELS 3  Xrotation Yrotation Zrotation
					JOINT neck_1
					{
						OFFSET	0	71.8	-50.3
						CHANNELS 3  Xrotation Yrotation Zrotation
						JOINT neck_2
						{
							OFFSET	0	86.2	-25.8
							CHANNELS 3  Xrotation Yrotation Zrotation
							JOINT head_ee
							{
								OFFSET	0	179.8	-8.7
								CHANNELS 3  Xrotation Yrotation Zrotation
								End Site
								{
									OFFSET	1	0	0
								}
							}
						}
					}
					JOINT left_clavicle
					{
						OFFSET	-43.2	22.4	-70.8
						CHANNELS 3  Xrotation Yrotation Zrotation
						JOINT left_shoulder
						{
							OFFSET	-93.9	-5.79999	48.7
							CHANNELS 3  Xrotation Yrotation Zrotation
							JOINT left_elbow
							{
								OFFSET	-291.4	-30.8	15.2
								CHANNELS 3  Xrotation Yrotation Zrotation
								JOINT left_lowarm_twist
								{
									OFFSET	-110.7	-3.89999	13.6
									CHANNELS 3  Xrotation Yrotation Zrotation
									JOINT left_hand
									{
										OFFSET	-110.7	-3.89999	13.6
										CHANNELS 3  Xrotation Yrotation Zrotation
										JOINT left_ee
										{
											OFFSET	-80.8	-5.10001	12.1
											CHANNELS 3  Xrotation Yrotation Zrotation
											End Site
											{
												OFFSET	1	0	0
											}
										}
									}
								}
							}
						}
					}
					JOINT right_clavicle
					{
						OFFSET	43.2	22.4	-70.8
						CHANNELS 3  Xrotation Yrotation Zrotation
						JOINT right_shoulder
						{
							OFFSET	93.9	-5.79999	48.7
							CHANNELS 3  Xrotation Yrotation Zrotation
							JOINT right_elbow
							{
								OFFSET	291.4	-30.8	15.2
								CHANNELS 3  Xrotation Yrotation Zrotation
								JOINT right_lowarm_twist
								{
									OFFSET	110.7	-3.89999	13.6
									CHANNELS 3  Xrotation Yrotation Zrotation
									JOINT right_hand
									{
										OFFSET	110.7	-3.89999	13.6
										CHANNELS 3  Xrotation Yrotation Zrotation
										JOINT right_ee
										{
											OFFSET	80.8	-5.10001	12.1
											CHANNELS 3  Xrotation Yrotation Zrotation
											End Site
											{
												OFFSET	1	0	0
											}
										}
									}
								}
							}
						}
					}
				}
			}
		}
	}
	JOINT left_hip
	{
		OFFSET	-82.8	-127.5	0.300001
		CHANNELS 3  Xrotation Yrotation Zrotation
		JOINT left_knee
		{
			OFFSET	-28.2	-396.7	2.2
			CHANNELS 3  Xrotation Yrotation Zrotation
			JOINT left_ankle
			{
				OFFSET	-11.7	-411.3	35.4
				CHANNELS 3  Xrotation Yrotation Zrotation
				JOINT left_toes
				{
					OFFSET	0	-60	-88.6
					CHANNELS 3  Xrotation Yrotation Zrotation
					JOINT left_foot_ee
					{
						OFFSET	-22.5	-16.5	-42.2
						CHANNELS 3  Xrotation Yrotation Zrotation
						End Site
						{
							OFFSET	1	0	0
						}
					}
				}
			}
		}
	}
	JOINT right_hip
	{
		OFFSET	82.8	-127.5	0.300001
		CHANNELS 3  Xrotation Yrotation Zrotation
		JOINT right_knee
		{
			OFFSET	28.2	-396.7	2.2
			CHANNELS 3  Xrotation Yrotation Zrotation
			JOINT right_ankle
			{
				OFFSET	11.7	-411.3	35.4
				CHANNELS 3  Xrotation Yrotation Zrotation
				JOINT right_toes
				{
					OFFSET	0	-60	-88.6
					CHANNELS 3  Xrotation Yrotation Zrotation
					JOINT right_foot_ee
					{
						OFFSET	22.5	-16.5	-42.2
						CHANNELS 3  Xrotation Yrotation Zrotation
						End Site
						{
							OFFSET	1	0	0
						}
					}
				}
			}
		}
	}
}
MOTION
Frames: 16
Frame Time: 0.02
419.525601885 701.598 -1071.30689192 -171.995030749 -6.11170778633 175.902212276 4.77129 0.0957846 1.4279 4.77243 0.00473916 1.4311 4.77165 -0.17869 1.41991 4.76884 0.0477771 1.43031 -13.2727 15.6723 1.52546 -13.8935 28.9173 6.43846 -0.0 0.0 -0.0 -4.61434 18.8651 -4.75246 -5.2179 -34.6108 56.7518 3.46886 -59.7883 1.99462 14.5959 0.281482 -1.83823 0.128774 -14.3804 -5.25292 -0.0 0.0 -0.0 4.0973 3.58016 -7.71725 -38.953 43.2518 -59.4107 0.706226 19.2821 -0.119971 28.2798 -0.116311 3.5742 -2.29356 -27.4498 1.80669 0.0 0.0 0.0 25.5444 5.84814 -7.13289 -6.83305 0.220431 1.02489 31.9789 6.48406 -4.0961 -38.6398 0.0 0.0 -0.0 0.0 -0.0 10.7583 -12.5054 11.3117 -13.8795 -0.318333 -2.10101 36.8297 32.9887 5.81656 -7.09608 0.0 0.0 0.0 0.0 0.0 
418.158258895 701.598 -1071.02695695 -172.003370859 -5.52964037463 175.819976127 4.77129 0.0957846 1.4279 4.77243 0.00473916 1.4311 4.77165 -0.17869 1.41991 4.76884 0.0477771 1.43031 -13.2727 15.6723 1.52546 -13.8935 28.9173 6.43846 -0.0 0.0 -0.0 -4.61434 18.8651 -4.75246 -5.2179 -34.6108 56.7518 3.46886 -59.7883 1.99462 14.5959 0.281482 -1.83823 0.128774 -14.3804 -5.25292 -0.0 0.0 -0.0 4.0973 3.58016 -7.71725 -38.953 43.2518 -59.4107 0.706226 19.2821 -0.119971 28.2798 -0.116311 3.5742 -2.29356 -27.4498 1.80669 0.0 0.0 0.0 25.5444 5.84814 -7.13289 -6.83305 0.220431 1.02489 31.9789 6.48406 -4.0961 -38.6398 0.0 0.0 -0.0 0.0 -0.0 10.7583 -12.5054 11.3117 -13.8795 -0.318333 -2.10101 36.8297 32.9887 5.81656 -7.09608 0.0 0.0 0.0 0.0 0.0 
548.539758591 704.591 -942.765874249 -166.087748109 -1.68321289759 178.445191115 6.28677 0.418865 1.7288 6.28838 0.308025 1.75194 6.29578 0.128352 1.77417 6.29162 0.406896 1.73165 -7.66955 18.4715 -0.727404 -7.77426 35.0062 3.35232 -0.0 0.0 -0.0 -2.21708 14.1741 -1.93396 -5.32161 -31.5982 51.7727 6.49311 -72.6953 4.78032 2.53002 0.0822461 -0.312655 0.887635 -7.93952 2.62365 -0.0 0.0 -0.0 2.29831 3.61058 -4.13409 -49.5342 42.5786 -62.891 0.379392 10.6442 -0.035343 42.0869 0.46224 5.2373 -0.0223431 -28.8517 -11.1697 0.0 0.0 0.0 28.3409 2.42214 -6.05063 -0.18928 0.00774754 0.0280137 11.5335 22.3046 -1.6842 -38.7728 0.0 0.0 -0.0 0.0 -0.0 0.240128 10.2922 12.8304 -3.16531 -0.117323 -0.471546 27.476 20.1364 4.03522 -6.94774 0.0 0.0 0.0 0.0 0.0 
547.699230532 704.591 -942.263472178 -166.088978189 -1.50474874782 178.400970143 6.28677 0.418865 1.7288 6.28838 0.308025 1.75194 6.29578 0.128352 1.77417 6.29162 0.406896 1.73165 -7.66955 18.4715 -0.727404 -7.77426 35.0062 3.35232 -0.0 0.0 -0.0 -2.21708 14.1741 -1.93396 -5.32161 -31.5982 51.7727 6.49311 -72.6953 4.78032 2.53002 0.0822461 -0.312655 0.887635 -7.93952 2.62365 -0.0 0.0 -0.0 2.29831 3.61058 -4.13409 -49.5342 42.5786 -62.891 0.379392 10.6442 -0.035343 42.0869 0.46224 5.2373 -0.0223431 -28.8517 -11.1697 0.0 0.0 0.0 28.3409 2.42214 -6.05063 -0.18928 0.00774754 0.0280137 11.5335 22.3046 -1.6842 -38.7728 0.0 0.0 -0.0 0.0 -0.0 0.240128 10.2922 12.8304 -3.16531 -0.117323 -0.471546 27.476 20.1364 4.03522 -6.94774 0.0 0.0 0.0 0.0 0.0 
548.161723515 704.591 -942.539461362 -166.088318706 -1.60290479077 178.425290886 6.28677 0.418865 1.7288 6.28838 0.308025 1.75194 6.29578 0.128352 1.77417 6.29162 0.406896 1.73165 -7.66955 18.4715 -0.727404 -7.77426 35.0062 3.35232 -0.0 0.0 -0.0 -2.21708 14.1741 -1.93396 -5.32161 -31.5982 51.7727 6.49311 -72.6953 4.78032 2.53002 0.0822461 -0.312655 0.887635 -7.93952 2.62365 -0.0 0.0 -0.0 2.29831 3.61058 -4.13409 -49.5342 42.5786 -62.891 0.379392 10.6442 -0.035343 42.0869 0.46224 5.2373 -0.0223431 -28.8517 -11.1697 0.0 0.0 0.0 28.3409 2.42214 -6.05063 -0.18928 0.00774754 0.0280137 11.5335 22.3046 -1.6842 -38.7728 0.0 0.0 -0.0 0.0 -0.0 0.240128 10.2922 12.8304 -3.16531 -0.117323 -0.471546 27.476 20.1364 4.03522 -6.94774 0.0 0.0 0.0 0.0 0.0 
549.765025316 704.591 -943.504825702 -166.085702687 -1.94398207344 178.509821394 6.28677 0.418865 1.7288 6.28838 0.308025 1.75194 6.29578 0.128352 1.77417 6.29162 0.406896 1.73165 -7.66955 18.4715 -0.727404 -7.77426 35.0062 3.35232 -0.0 0.0 -0.0 -2.21708 14.1741 -1.93396 -5.32161 -31.5982 51.7727 6.49311 -72.6953 4.78032 2.53002 0.0822461 -0.312655 0.887635 -7.93952 2.62365 -0.0 0.0 -0.0 2.29831 3.61058 -4.13409 -49.5342 42.5786 -62.891 0.379392 10.6442 -0.035343 42.0869 0.46224 5.2373 -0.0223431 -28.8517 -11.1697 0.0 0.0 0.0 28.3409 2.42214 -6.05063 -0.18928 0.00774754 0.0280137 11.5335 22.3046 -1.6842 -38.7728 0.0 0.0 -0.0 0.0 -0.0 0.240128 10.2922 12.8304 -3.16531 -0.117323 -0.471546 27.476 20.1364 4.03522 -6.94774 0.0 0.0 0.0 0.0 0.0 
555.299831223 704.591 -946.941890715 -166.07265896 -3.1313441509 178.804404683 6.28677 0.418865 1.7288 6.28838 0.308025 1.75194 6.29578 0.128352 1.77417 6.29162 0.406896 1.73165 -7.66955 18.4715 -0.727404 -7.77426 35.0062 3.35232 -0.0 0.0 -0.0 -2.21708 14.1741 -1.93396 -5.32161 -31.5982 51.7727 6.49311 -72.6953 4.78032 2.53002 0.0822461 -0.312655 0.887635 -7.93952 2.62365 -0.0 0.0 -0.0 2.29831 3.61058 -4.13409 -49.5342 42.5786 -62.891 0.379392 10.6442 -0.035343 42.0869 0.46224 5.2373 -0.0223431 -28.8517 -11.1697 0.0 0.0 0.0 28.3409 2.42214 -6.05063 -0.18928 0.00774754 0.0280137 11.5335 22.3046 -1.6842 -38.7728 0.0 0.0 -0.0 0.0 -0.0 0.240128 10.2922 12.8304 -3.16531 -0.117323 -0.471546 27.476 20.1364 4.03522 -6.94774 0.0 0.0 0.0 0.0 0.0 
562.156318539 704.591 -951.432241309 -166.047525917 -4.62492728472 179.175972385 6.28677 0.418865 1.7288 6.28838 0.308025 1.75194 6.29578 0.128352 1.77417 6.29162 0.406896 1.73165 -7.66955 18.4715 -0.727404 -7.77426 35.0062 3.35232 -0.0 0.0 -0.0 -2.21708 14.1741 -1.93396 -5.32161 -31.5982 51.7727 6.49311 -72.6953 4.78032 2.53002 0.0822461 -0.312655 0.887635 -7.93952 2.62365 -0.0 0.0 -0.0 2.29831 3.61058 -4.13409 -49.5342 42.5786 -62.891 0.379392 10.6442 -0.035343 42.0869 0.46224 5.2373 -0.0223431 -28.8517 -11.1697 0.0 0.0 0.0 28.3409 2.42214 -6.05063 -0.18928 0.00774754 0.0280137 11.5335 22.3046 -1.6842 -38.7728 0.0 0.0 -0.0 0.0 -0.0 0.240128 10.2922 12.8304 -3.16531 -0.117323 -0.471546 27.476 20.1364 4.03522 -6.94774 0.0 0.0 0.0 0.0 0.0 
563.900647104 704.591 -952.617170479 -166.039478588 -5.00916733198 179.271802654 6.28677 0.418865 1.7288 6.28838 0.308025 1.75194 6.29578 0.128352 1.77417 6.29162 0.406896 1.73165 -7.66955 18.4715 -0.727404 -7.77426 35.0062 3.35232 -0.0 0.0 -0.0 -2.21708 14.1741 -1.93396 -5.32161 -31.5982 51.7727 6.49311 -72.6953 4.78032 2.53002 0.0822461 -0.312655 0.887635 -7.93952 2.62365 -0.0 0.0 -0.0 2.29831 3.61058 -4.13409 -49.5342 42.5786 -62.891 0.379392 10.6442 -0.035343 42.0869 0.46224 5.2373 -0.0223431 -28.8517 -11.1697 0.0 0.0 0.0 28.3409 2.42214 -6.05063 -0.18928 0.00774754 0.0280137 11.5335 22.3046 -1.6842 -38.7728 0.0 0.0 -0.0 0.0 -0.0 0.240128 10.2922 12.8304 -3.16531 -0.117323 -0.471546 27.476 20.1364 4.03522 -6.94774 0.0 0.0 0.0 0.0 0.0 
564.523830224 704.591 -953.044789491 -166.036436122 -5.14687888957 179.306176018 6.28677 0.418865 1.7288 6.28838 0.308025 1.75194 6.29578 0.128352 1.77417 6.29162 0.406896 1.73165 -7.66955 18.4715 -0.727404 -7.77426 35.0062 3.35232 -0.0 0.0 -0.0 -2.21708 14.1741 -1.93396 -5.32161 -31.5982 51.7727 6.49311 -72.6953 4.78032 2.53002 0.0822461 -0.312655 0.887635 -7.93952 2.62365 -0.0 0.0 -0.0 2.29831 3.61058 -4.13409 -49.5342 42.5786 -62.891 0.379392 10.6442 -0.035343 42.0869 0.46224 5.2373 -0.0223431 -28.8517 -11.1697 0.0 0.0 0.0 28.3409 2.42214 -6.05063 -0.18928 0.00774754 0.0280137 11.5335 22.3046 -1.6842 -38.7728 0.0 0.0 -0.0 0.0 -0.0 0.240128 10.2922 12.8304 -3.16531 -0.117323 -0.471546 27.476 20.1364 4.03522 -6.94774 0.0 0.0 0.0 0.0 0.0 
564.217077665 704.591 -952.834016731 -166.037944823 -5.07906341655 179.289247109 6.28677 0.418865 1.7288 6.28838 0.308025 1.75194 6.29578 0.128352 1.77417 6.29162 0.406896 1.73165 -7.66955 18.4715 -0.727404 -7.77426 35.0062 3.35232 -0.0 0.0 -0.0 -2.21708 14.1741 -1.93396 -5.32161 -31.5982 51.7727 6.49311 -72.6953 4.78032 2.53002 0.0822461 -0.312655 0.887635 -7.93952 2.62365 -0.0 0.0 -0.0 2.29831 3.61058 -4.13409 -49.5342 42.5786 -62.891 0.379392 10.6442 -0.035343 42.0869 0.46224 5.2373 -0.0223431 -28.8517 -11.1697 0.0 0.0 0.0 28.3409 2.42214 -6.05063 -0.18928 0.00774754 0.0280137 11.5335 22.3046 -1.6842 -38.7728 0.0 0.0 -0.0 0.0 -0.0 0.240128 10.2922 12.8304 -3.16531 -0.117323 -0.471546 27.476 20.1364 4.03522 -6.94774 0.0 0.0 0.0 0.0 0.0 
564.576584051 704.591 -953.081092709 -166.03617449 -5.15854715559 179.309089164 6.28677 0.418865 1.7288 6.28838 0.308025 1.75194 6.29578 0.128352 1.77417 6.29162 0.406896 1.73165 -7.66955 18.4715 -0.727404 -7.77426 35.0062 3.35232 -0.0 0.0 -0.0 -2.21708 14.1741 -1.93396 -5.32161 -31.5982 51.7727 6.49311 -72.6953 4.78032 2.53002 0.0822461 -0.312655 0.887635 -7.93952 2.62365 -0.0 0.0 -0.0 2.29831 3.61058 -4.13409 -49.5342 42.5786 -62.891 0.379392 10.6442 -0.035343 42.0869 0.46224 5.2373 -0.0223431 -28.8517 -11.1697 0.0 0.0 0.0 28.3409 2.42214 -6.05063 -0.18928 0.00774754 0.0280137 11.5335 22.3046 -1.6842 -38.7728 0.0 0.0 -0.0 0.0 -0.0 0.240128 10.2922 12.8304 -3.16531 -0.117323 -0.471546 27.476 20.1364 4.03522 -6.94774 0.0 0.0 0.0 0.0 0.0 
563.285860453 704.591 -952.197531889 -166.042393353 -4.87353782356 179.23796357 6.28677 0.418865 1.7288 6.28838 0.308025 1.75194 6.29578 0.128352 1.77417 6.29162 0.406896 1.73165 -7.66955 18.4715 -0.727404 -7.77426 35.0062 3.35232 -0.0 0.0 -0.0 -2.21708 14.1741 -1.93396 -5.32161 -31.5982 51.7727 6.49311 -72.6953 4.78032 2.53002 0.0822461 -0.312655 0.887635 -7.93952 2.62365 -0.0 0.0 -0.0 2.29831 3.61058 -4.13409 -49.5342 42.5786 -62.891 0.379392 10.6442 -0.035343 42.0869 0.46224 5.2373 -0.0223431 -28.8517 -11.1697 0.0 0.0 0.0 28.3409 2.42214 -6.05063 -0.18928 0.00774754 0.0280137 11.5335 22.3046 -1.6842 -38.7728 0.0 0.0 -0.0 0.0 -0.0 0.240128 10.2922 12.8304 -3.16531 -0.117323 -0.471546 27.476 20.1364 4.03522 -6.94774 0.0 0.0 0.0 0.0 0.0 
561.669449878 704.591 -951.104642745 -166.049649911 -4.51799766155 179.149323357 6.28677 0.418865 1.7288 6.28838 0.308025 1.75194 6.29578 0.128352 1.77417 6.29162 0.406896 1.73165 -7.66955 18.4715 -0.727404 -7.77426 35.0062 3.35232 -0.0 0.0 -0.0 -2.21708 14.1741 -1.93396 -5.32161 -31.5982 51.7727 6.49311 -72.6953 4.78032 2.53002 0.0822461 -0.312655 0.887635 -7.93952 2.62365 -0.0 0.0 -0.0 2.29831 3.61058 -4.13409 -49.5342 42.5786 -62.891 0.379392 10.6442 -0.035343 42.0869 0.46224 5.2373 -0.0223431 -28.8517 -11.1697 0.0 0.0 0.0 28.3409 2.42214 -6.05063 -0.18928 0.00774754 0.0280137 11.5335 22.3046 -1.6842 -38.7728 0.0 0.0 -0.0 0.0 -0.0 0.240128 10.2922 12.8304 -3.16531 -0.117323 -0.471546 27.476 20.1364 4.03522 -6.94774 0.0 0.0 0.0 0.0 0.0 
560.675106516 704.591 -950.439792189 -166.053823921 -4.30003717839 179.095028065 6.28677 0.418865 1.7288 6.28838 0.308025 1.75194 6.29578 0.128352 1.77417 6.29162 0.406896 1.73165 -7.66955 18.4715 -0.727404 -7.77426 35.0062 3.35232 -0.0 0.0 -0.0 -2.21708 14.1741 -1.93396 -5.32161 -31.5982 51.7727 6.49311 -72.6953 4.78032 2.53002 0.0822461 -0.312655 0.887635 -7.93952 2.62365 -0.0 0.0 -0.0 2.29831 3.61058 -4.13409 -49.5342 42.5786 -62.891 0.379392 10.6442 -0.035343 42.0869 0.46224 5.2373 -0.0223431 -28.8517 -11.1697 0.0 0.0 0.0 28.3409 2.42214 -6.05063 -0.18928 0.00774754 0.0280137 11.5335 22.3046 -1.6842 -38.7728 0.0 0.0 -0.0 0.0 -0.0 0.240128 10.2922 12.8304 -3.16531 -0.117323 -0.471546 27.476 20.1364 4.03522 -6.94774 0.0 0.0 0.0 0.0 0.0 
558.899220393 704.591 -949.266324972 -166.060736907 -3.91215926849 178.99848341 6.28677 0.418865 1.7288 6.28838 0.308025 1.75194 6.29578 0.128352 1.77417 6.29162 0.406896 1.73165 -7.66955 18.4715 -0.727404 -7.77426 35.0062 3.35232 -0.0 0.0 -0.0 -2.21708 14.1741 -1.93396 -5.32161 -31.5982 51.7727 6.49311 -72.6953 4.78032 2.53002 0.0822461 -0.312655 0.887635 -7.93952 2.62365 -0.0 0.0 -0.0 2.29831 3.61058 -4.13409 -49.5342 42.5786 -62.891 0.379392 10.6442 -0.035343 42.0869 0.46224 5.2373 -0.0223431 -28.8517 -11.1697 0.0 0.0 0.0 28.3409 2.42214 -6.05063 -0.18928 0.00774754 0.0280137 11.5335 22.3046 -1.6842 -38.7728 0.0 0.0 -0.0 0.0 -0.0 0.240128 10.2922 12.8304 -3.16531 -0.117323 -0.471546 27.476 20.1364 4.03522 -6.94774 0.0 0.0 0.0 0.0 0.0 
